<?xml version="1.0" encoding="iso-8859-1"?>
<!-- Generator: Adobe Illustrator 16.0.4, SVG Export Plug-In . SVG Version: 6.00 Build 0)  -->
<!DOCTYPE svg PUBLIC "-//W3C//DTD SVG 1.1//EN" "http://www.w3.org/Graphics/SVG/1.1/DTD/svg11.dtd">
<svg version="1.1" id="Capa_1" xmlns="http://www.w3.org/2000/svg" xmlns:xlink="http://www.w3.org/1999/xlink" x="0px" y="0px"
	 width="16.217px" height="13.367px" viewBox="0 0 16.217 13.367" style="enable-background:new 0 0 16.217 13.367;"
	 xml:space="preserve">
<path style="fill:#010002;" d="M14.709,4.4c-0.508,0-0.92,0.412-0.92,0.918s0.412,0.918,0.92,0.918c0.506,0,0.918-0.412,0.918-0.918
	S15.215,4.4,14.709,4.4z M1.51,4.4c-0.508,0-0.92,0.412-0.92,0.918s0.412,0.918,0.92,0.918c0.506,0,0.918-0.412,0.918-0.918
	S2.016,4.4,1.51,4.4z M11.977,2.73c-0.754,0-1.365,0.613-1.365,1.367c0,0.753,0.611,1.365,1.365,1.365s1.367-0.612,1.367-1.365
	C13.344,3.344,12.73,2.73,11.977,2.73z M16.217,11.039H14.66V8.174c0-0.493-0.145-0.95-0.377-1.348
	c0.137-0.04,0.277-0.068,0.426-0.068c0.83,0,1.508,0.678,1.508,1.51V11.039z M4.24,2.73c-0.754,0-1.367,0.613-1.367,1.367
	c0,0.753,0.613,1.365,1.367,1.365c0.752,0,1.365-0.612,1.365-1.365C5.605,3.344,4.992,2.73,4.24,2.73z M1.51,6.758
	c0.148,0,0.287,0.028,0.424,0.068C1.699,7.224,1.557,7.681,1.557,8.174v2.865H0V8.268C0,7.436,0.678,6.758,1.51,6.758z M8.107,0
	c-1.113,0-2.02,0.906-2.02,2.02c0,1.114,0.906,2.021,2.02,2.021s2.021-0.907,2.021-2.021C10.129,0.906,9.221,0,8.107,0z
	 M14.16,12.105h-2.385V7.746c0-0.6-0.158-1.157-0.414-1.657c0.195-0.058,0.4-0.099,0.615-0.099c1.203,0,2.184,0.979,2.184,2.184
	V12.105z M4.439,7.746v4.359H2.057V8.174c0-1.204,0.979-2.184,2.184-2.184c0.215,0,0.418,0.041,0.613,0.099
	C4.598,6.589,4.439,7.146,4.439,7.746z M4.939,13.367h6.336V7.746c0-1.747-1.422-3.168-3.168-3.168
	c-1.748,0-3.168,1.421-3.168,3.168V13.367z"/>
<g>
</g>
<g>
</g>
<g>
</g>
<g>
</g>
<g>
</g>
<g>
</g>
<g>
</g>
<g>
</g>
<g>
</g>
<g>
</g>
<g>
</g>
<g>
</g>
<g>
</g>
<g>
</g>
<g>
</g>
</svg>
