<?xml version="1.0" encoding="utf-8"?>
<!-- Generator: Adobe Illustrator 16.0.0, SVG Export Plug-In . SVG Version: 6.00 Build 0)  -->
<!DOCTYPE svg PUBLIC "-//W3C//DTD SVG 1.1//EN" "http://www.w3.org/Graphics/SVG/1.1/DTD/svg11.dtd">
<svg version="1.1" id="Layer_1" xmlns="http://www.w3.org/2000/svg" xmlns:xlink="http://www.w3.org/1999/xlink" x="0px" y="0px"
	 width="512px" height="512px" viewBox="0 0 512 512" enable-background="new 0 0 512 512" xml:space="preserve">
<path d="M448.008,256c0-12-1.25-23.656-3.344-35.031l65.031-37.531l-64-110.875l-65.031,37.563
	C362.945,95,342.414,83.094,320.008,75.156V0h-128v75.156C169.586,83.094,149.07,95,131.352,110.125L66.305,72.563l-64,110.875
	L67.352,221c-2.109,11.344-3.344,23-3.344,35c0,11.969,1.234,23.625,3.344,35L2.305,328.563l64,110.875l65.063-37.563
	c17.719,15.156,38.219,27.031,60.641,34.969V512h128v-75.156c22.406-7.938,42.938-19.813,60.625-34.969l65.063,37.563l64-110.875
	l-65.031-37.531C446.758,279.656,448.008,267.969,448.008,256z M256.008,352c-53.031,0-96-42.969-96-96s42.969-96,96-96
	s96,42.969,96,96S309.039,352,256.008,352z"/>
</svg>
