<?xml version="1.0" encoding="utf-8"?>
<!-- Generator: Adobe Illustrator 16.0.0, SVG Export Plug-In . SVG Version: 6.00 Build 0)  -->
<!DOCTYPE svg PUBLIC "-//W3C//DTD SVG 1.1//EN" "http://www.w3.org/Graphics/SVG/1.1/DTD/svg11.dtd">
<svg version="1.1" id="Layer_1" xmlns="http://www.w3.org/2000/svg" xmlns:xlink="http://www.w3.org/1999/xlink" x="0px" y="0px"
	 width="512px" height="512px" viewBox="0 0 512 512" enable-background="new 0 0 512 512" xml:space="preserve">
<path d="M416,351.998h-32c-35.344,0-64-28.656-64-64v-20.563c14.156-16.828,24.313-36.734,30.625-57.766
	c0.656-3.547,4.063-5.297,6.344-7.734c12.25-12.25,14.656-32.922,5.469-47.641c-1.25-2.234-3.5-4.172-3.375-6.938
	c0-18.766,0.094-37.563-0.031-56.313c-0.5-22.641-6.969-46.188-22.844-62.953c-12.813-13.547-30.406-21.609-48.563-25.063
	c-22.938-4.375-46.938-4.156-69.656,1.625c-19.688,4.969-38.188,16.5-49.625,33.594c-10.125,14.859-14.563,32.906-15.313,50.688
	c-0.281,19.094-0.063,38.234-0.125,57.375c0.438,3.828-2.813,6.422-4.281,9.594c-8.656,15.703-4.844,37.094,9.063,48.516
	c3.531,2.438,4.188,6.875,5.469,10.703c6.063,18.906,16.125,36.391,28.844,51.625v21.25c0,35.344-28.656,64-64,64H96
	c0,0-58,16-96,96v32c0,17.688,14.313,32,32,32h448c17.688,0,32-14.313,32-32v-32C474,367.998,416,351.998,416,351.998z"/>
</svg>
