<?xml version="1.0" encoding="iso-8859-1"?>
<!-- Generator: Adobe Illustrator 17.1.0, SVG Export Plug-In . SVG Version: 6.00 Build 0)  -->
<!DOCTYPE svg PUBLIC "-//W3C//DTD SVG 1.1//EN" "http://www.w3.org/Graphics/SVG/1.1/DTD/svg11.dtd">
<svg version="1.1" id="Layer_1" xmlns="http://www.w3.org/2000/svg" xmlns:xlink="http://www.w3.org/1999/xlink" x="0px" y="0px"
	 viewBox="0 0 800 800" style="enable-background:new 0 0 800 800;" xml:space="preserve">
<path d="M800,452.281v270.113c0,10.762-8.724,19.485-19.486,19.485h-84.663c-10.762,0-19.486-8.724-19.486-19.485v-34.689
	c-1.246,3.802-3.956,7.034-7.874,7.673c-84.679,13.813-174.588,62.456-263.966,62.456c-83.801,0-192.432-17.049-253.247-79.227
	C83.464,609.273,25.064,546.513,10.044,525.069c-30.493-43.533,15.126-80.886,47.953-46.434
	c27.867,29.246,88.287,93.513,134.368,124.983c6.735,29.14,45.775,56.993,85.47,56.993c39.695,0,226.243,0,226.243,0
	s-14.751-19.397-32.594-21.111c0,0-167.468,0-192.194,0c-24.727,0-66.91-20.231-66.91-65.189c0-53.949,45.555-65.189,66.91-65.189
	c16.15,0,117.755,0,166.344,0c0,0,64.065-44.958,124.757-44.958c46.593,0,84.574,16.56,99.708,24.254
	c3.03,1.54,5.188,4.201,6.268,7.301v-43.438c0-10.762,8.724-19.486,19.486-19.486h84.663C791.276,432.796,800,441.52,800,452.281z
	 M201.185,535.674c-10.575-17.793-88.848-84.171-115.635-94.915c-21.91-8.787-26.882,10.269-26.882,10.269
	S174.479,551.664,183.91,559.859C195.227,557.097,206.059,543.876,201.185,535.674z M187.799,358.342V115.11
	c0-40.286,32.658-72.944,72.944-72.944h111.464v54.904h51.752V42.166h110.784c40.285,0,72.944,32.658,72.944,72.944v243.232
	c0,40.286-32.659,72.944-72.944,72.944H422.915v-43.399h-48.579v43.399H260.743C220.457,431.286,187.799,398.628,187.799,358.342z
	 M328.811,229.427c1.506,0,24.481,0,51.571,0v110.711h39.742V229.427c27.995,0,51.571,0,51.571,0l-71.442-85.163L328.811,229.427z
	 M223.5,489.046c-10.575-17.794-64.534-59.857-91.321-70.601c-21.909-8.787-26.882,10.269-26.882,10.269
	s91.497,76.321,100.928,84.517C217.542,510.467,228.374,497.247,223.5,489.046z"/>
</svg>
