<?xml version="1.0" encoding="UTF-8" standalone="no"?>
<!-- Created with Inkscape (http://www.inkscape.org/) -->

<svg
   xmlns:dc="http://purl.org/dc/elements/1.1/"
   xmlns:cc="http://creativecommons.org/ns#"
   xmlns:rdf="http://www.w3.org/1999/02/22-rdf-syntax-ns#"
   xmlns:svg="http://www.w3.org/2000/svg"
   xmlns="http://www.w3.org/2000/svg"
   xmlns:xlink="http://www.w3.org/1999/xlink"
   version="1.1"
   width="293"
   height="366"
   id="svg2">
  <defs
     id="defs4">
    <linearGradient
       id="linearGradient3817">
      <stop
         id="stop3819"
         style="stop-color:#2e2d23;stop-opacity:1"
         offset="0" />
      <stop
         id="stop3821"
         style="stop-color:#ffdd1d;stop-opacity:1"
         offset="1" />
    </linearGradient>
    <linearGradient
       id="linearGradient3795">
      <stop
         id="stop3797"
         style="stop-color:#2c9920;stop-opacity:1"
         offset="0" />
      <stop
         id="stop3799"
         style="stop-color:#031300;stop-opacity:0.95041323"
         offset="1" />
    </linearGradient>
    <linearGradient
       x1="198.94603"
       y1="138.60571"
       x2="237.26695"
       y2="138.60571"
       id="linearGradient3823"
       xlink:href="#linearGradient3817"
       gradientUnits="userSpaceOnUse" />
    <linearGradient
       x1="161.14537"
       y1="120.28378"
       x2="-255.03748"
       y2="362.7204"
       id="linearGradient3863"
       xlink:href="#linearGradient3795"
       gradientUnits="userSpaceOnUse" />
    <linearGradient
       x1="161.14537"
       y1="120.28378"
       x2="-250.10271"
       y2="378.073"
       id="linearGradient2999"
       xlink:href="#linearGradient3795"
       gradientUnits="userSpaceOnUse" />
  </defs>
  <metadata
     id="metadata7">
    <rdf:RDF>
      <cc:Work
         rdf:about="">
        <dc:format>image/svg+xml</dc:format>
        <dc:type
           rdf:resource="http://purl.org/dc/dcmitype/StillImage" />
        <dc:title></dc:title>
      </cc:Work>
    </rdf:RDF>
  </metadata>
  <g
     transform="translate(-210.64285,-17.933594)"
     id="layer1">
    <g
       transform="translate(270.72088,34.345187)"
       id="g3050"
       style="fill:url(#linearGradient3863);fill-opacity:1">
      <path
         d="m 79.87287,-15.448297 -70.9375,41.125 c 21.80303,18.412368 42.022239,33.99989 63.133929,53.21875 7.081874,7.081874 -7.255604,15.532352 -15.674922,7.113034 L -10.930701,38.547239 -58.86504,63.053713 -59.659297,186.69281 c 36.209703,-22.75969 74.121329,-46.57635 110.916477,-68.80062 22.823944,-12.40328 36.72465,-14.18979 53.88164,-6.41465 26.73424,13.25062 41.03496,41.60141 32.61926,74.96815 -6.99213,24.17877 -35.81251,34.68424 -54.74974,47.78603 L -0.70468213,291.60738 79.93537,344.1142 l 38.71309,-25.68766 3.38066,-92.36591 c 0,-9.04302 17.5463,-8.99984 17.5463,-0.0515 1.02282,26.16286 -0.66619,52.45688 1.3912,78.54259 25.22917,-14.78125 50.45833,-29.5625 75.6875,-44.34375 -20.44599,-14.23224 -40.89199,-28.46448 -61.33798,-42.69672 -9.53635,-9.53635 2.58542,-25.22964 13.35097,-19.01415 20.78297,11.43038 41.56593,22.86077 62.3489,34.29115 -0.0736,-30.42935 -0.14728,-60.85871 -0.22092,-91.28806 -22.60326,13.95834 -30.81185,19.33038 -53.41511,33.28872 -9.97415,5.75857 -22.33079,-10.18037 -10.10968,-17.23623 22.81153,-14.02877 40.57229,-25.78469 63.38382,-39.81346 0.125,-14.23958 0.25,-28.479167 0.375,-42.718747 -10.44792,-5.75 -20.89583,-11.5 -31.34375,-17.25 -25.21875,15.875 -41.10103,24.8343 -66.31978,40.709294 -9.94186,5.739943 -21.18345,-9.974276 -11.625,-18.46428 18.31574,-13.17872 35.6802,-27.687633 54.19478,-40.401264 -23.04125,-16.889687 -46.6339,-33.106694 -70.5625,-48.71875 l -1.64941,85.126981 c 0,10.289522 -17.950169,11.723029 -18.852249,-0.642259 z m -58.427347,180.746667 -80.378236,54.92556 -0.12774,39.02485 30.513814,18.07977 C -8.2609158,262.58898 1.9954978,259.84749 57.00664,220.67356 24.575959,201.9497 21.445523,199.29929 21.445523,165.29837 z"
         id="path3068"
         style="fill:url(#linearGradient2999);fill-opacity:1" />
    </g>
    <a
       id="a2985">
      <path
         d="m 259.10413,126.97266 a 19.31917,19.31917 0 1 1 -38.63834,0 19.31917,19.31917 0 1 1 38.63834,0 z"
         transform="translate(188.92457,29.550348)"
         id="path3909"
         style="fill:#ffffff;fill-opacity:1;fill-rule:nonzero;stroke:none" />
    </a>
    <path
       d=""
       transform="translate(210.64285,17.933594)"
       id="path3811"
       style="opacity:0.59683796;fill:#007400;fill-opacity:1;fill-rule:evenodd;stroke:#6f8367;stroke-width:1.01015258;stroke-opacity:1" />
    <path
       d="m 214.28232,157.3568 c -6.58215,-1.24612 -12.87858,-7.22249 -14.65973,-13.91453 -0.68468,-2.57244 -0.65922,-7.55996 0.0509,-9.97769 1.87424,-6.38088 7.32997,-11.73732 13.58892,-13.34163 6.64591,-1.7035 13.39891,0.21164 18.34076,5.2014 3.74614,3.78246 5.46482,7.90746 5.48507,13.16469 0.0462,11.99661 -10.96804,21.1089 -22.80595,18.86776 z"
       transform="translate(210.64285,17.933594)"
       id="path3815"
       style="opacity:0.59683796;fill:url(#linearGradient3823);fill-opacity:1;fill-rule:nonzero;stroke:#6f8367;stroke-width:0.35714287;stroke-opacity:1" />
  </g>
</svg>
